<svg width="46" height="38" viewBox="0 0 46 38" fill="none" xmlns="http://www.w3.org/2000/svg">
<path d="M44.2527 7.6252C44.2527 15.0004 44.2527 30.3509 44.2527 32.751C44.2527 35.151 41.7527 36.2511 40.5026 36.5011C30.3882 36.5011 9.74378 36.5011 5.50158 36.5011C1.80147 36.5011 0.959781 33.501 1.00145 32.0009C1.00145 23.9174 1.00145 7.07518 1.00145 4.3751C1.00145 1.67502 3.25152 1 4.37655 1C9.12669 1 18.927 1 20.127 1C21.3271 1 22.1271 2.50004 22.3771 3.25007V4.62509M44.2527 7.6252C44.1277 6.79184 43.4527 5.12512 41.7527 5.12512C40.0526 5.12512 28.1273 5.12512 22.3771 5.12512V4.62509M44.2527 7.6252V4.5001C43.9611 3.3334 42.8527 1 40.7526 1C38.6526 1 30.044 1 26.0022 1C24.7938 1.04166 22.3771 1.825 22.3771 4.62509" stroke="black" stroke-width="2"/>
<path d="M22.8487 12.9988L23.8838 11.9637C24.2469 11.6003 24.6779 11.3121 25.1524 11.1153C25.6269 10.9186 26.1355 10.8173 26.6491 10.8172C27.1628 10.817 27.6714 10.9181 28.146 11.1146C28.6205 11.3111 29.0517 11.5992 29.4149 11.9624C29.7781 12.3256 30.0662 12.7568 30.2627 13.2314C30.4592 13.706 30.5603 14.2146 30.5602 14.7282C30.5601 15.2419 30.4587 15.7505 30.262 16.2249C30.0653 16.6994 29.777 17.1305 29.4136 17.4935L26.9001 20.0071C26.537 20.3701 26.106 20.6582 25.6316 20.8547C25.1571 21.0512 24.6487 21.1523 24.1352 21.1523C23.6217 21.1523 23.1132 21.0512 22.6388 20.8547C22.1644 20.6582 21.7334 20.3701 21.3703 20.0071" stroke="black" stroke-width="2.13288" stroke-linecap="round" stroke-linejoin="round"/>
<path d="M22.4051 24.5021L21.3701 25.537C21.0071 25.9004 20.576 26.1887 20.1016 26.3854C19.6271 26.5821 19.1185 26.6834 18.6049 26.6836C18.0912 26.6837 17.5826 26.5826 17.108 26.3861C16.6334 26.1896 16.2022 25.9015 15.839 25.5383C15.4758 25.1751 15.1878 24.7439 14.9913 24.2693C14.7947 23.7948 14.6937 23.2861 14.6938 22.7725C14.6939 22.2589 14.7952 21.7503 14.992 21.2758C15.1887 20.8013 15.477 20.3703 15.8403 20.0072L18.3539 17.4937C18.717 17.1306 19.148 16.8426 19.6224 16.6461C20.0968 16.4496 20.6053 16.3484 21.1188 16.3484C21.6323 16.3484 22.1407 16.4496 22.6151 16.6461C23.0895 16.8426 23.5206 17.1306 23.8837 17.4937" stroke="black" stroke-width="2.13288" stroke-linecap="round" stroke-linejoin="round"/>
</svg>
